<svg width="55" height="72" viewBox="0 0 55 72" fill="none" xmlns="http://www.w3.org/2000/svg">
<path d="M1 5C1 2.79086 2.79086 1 5 1H38.7614C40.014 1 41.1943 1.58679 41.9504 2.58545L47.375 9.75L52.8803 15.4631C53.5986 16.2085 54 17.2034 54 18.2386V67C54 69.2091 52.2091 71 50 71H5C2.79086 71 1 69.2091 1 67V5Z" fill="#ED6045"/>
<path d="M39 1L39 16C39 17.1046 39.8954 18 41 18H54M47.375 9.75L52.8803 15.4631C53.5986 16.2085 54 17.2034 54 18.2386V67C54 69.2091 52.2091 71 50 71H5C2.79086 71 1 69.2091 1 67V5C1 2.79086 2.79086 1 5 1H38.7614C40.014 1 41.1943 1.58679 41.9504 2.58545L47.375 9.75Z" stroke="#ED6045" stroke-width="2"/>
<path d="M9.44397 53.5342C9.44397 52.8542 9.57997 52.2582 9.85197 51.7462C10.132 51.2262 10.516 50.8262 11.004 50.5462C11.492 50.2662 12.052 50.1262 12.684 50.1262C13.484 50.1262 14.144 50.3182 14.664 50.7022C15.192 51.0782 15.548 51.6182 15.732 52.3222H14.256C14.136 51.9942 13.944 51.7382 13.68 51.5542C13.416 51.3702 13.084 51.2782 12.684 51.2782C12.124 51.2782 11.676 51.4782 11.34 51.8782C11.012 52.2702 10.848 52.8222 10.848 53.5342C10.848 54.2462 11.012 54.8022 11.34 55.2022C11.676 55.6022 12.124 55.8022 12.684 55.8022C13.476 55.8022 14 55.4542 14.256 54.7582H15.732C15.54 55.4302 15.18 55.9662 14.652 56.3662C14.124 56.7582 13.468 56.9542 12.684 56.9542C12.052 56.9542 11.492 56.8142 11.004 56.5342C10.516 56.2462 10.132 55.8462 9.85197 55.3342C9.57997 54.8142 9.44397 54.2142 9.44397 53.5342Z" fill="#211918"/>
<path d="M19.6513 55.6222L21.5233 50.2342H22.9753L20.4553 56.8462H18.8233L16.3153 50.2342H17.7793L19.6513 55.6222Z" fill="#211918"/>
<path d="M24.5613 56.9302C24.3133 56.9302 24.1053 56.8462 23.9373 56.6782C23.7693 56.5102 23.6853 56.3022 23.6853 56.0542C23.6853 55.8062 23.7693 55.5982 23.9373 55.4302C24.1053 55.2622 24.3133 55.1782 24.5613 55.1782C24.8013 55.1782 25.0053 55.2622 25.1733 55.4302C25.3413 55.5982 25.4253 55.8062 25.4253 56.0542C25.4253 56.3022 25.3413 56.5102 25.1733 56.6782C25.0053 56.8462 24.8013 56.9302 24.5613 56.9302Z" fill="#211918"/>
<path d="M28.2719 51.2062C28.5039 50.9022 28.8199 50.6462 29.2199 50.4382C29.6199 50.2302 30.0719 50.1262 30.5759 50.1262C31.1519 50.1262 31.6759 50.2702 32.1479 50.5582C32.6279 50.8382 33.0039 51.2342 33.2759 51.7462C33.5479 52.2582 33.6839 52.8462 33.6839 53.5102C33.6839 54.1742 33.5479 54.7702 33.2759 55.2982C33.0039 55.8182 32.6279 56.2262 32.1479 56.5222C31.6759 56.8102 31.1519 56.9542 30.5759 56.9542C30.0719 56.9542 29.6239 56.8542 29.2319 56.6542C28.8399 56.4462 28.5199 56.1902 28.2719 55.8862V59.9902H26.9039V50.2342H28.2719V51.2062ZM32.2919 53.5102C32.2919 53.0542 32.1959 52.6622 32.0039 52.3342C31.8199 51.9982 31.5719 51.7462 31.2599 51.5782C30.9559 51.4022 30.6279 51.3142 30.2759 51.3142C29.9319 51.3142 29.6039 51.4022 29.2919 51.5782C28.9879 51.7542 28.7399 52.0102 28.5479 52.3462C28.3639 52.6822 28.2719 53.0782 28.2719 53.5342C28.2719 53.9902 28.3639 54.3902 28.5479 54.7342C28.7399 55.0702 28.9879 55.3262 29.2919 55.5022C29.6039 55.6782 29.9319 55.7662 30.2759 55.7662C30.6279 55.7662 30.9559 55.6782 31.2599 55.5022C31.5719 55.3182 31.8199 55.0542 32.0039 54.7102C32.1959 54.3662 32.2919 53.9662 32.2919 53.5102Z" fill="#211918"/>
<path d="M34.5807 53.5102C34.5807 52.8462 34.7167 52.2582 34.9887 51.7462C35.2687 51.2342 35.6447 50.8382 36.1167 50.5582C36.5967 50.2702 37.1287 50.1262 37.7127 50.1262C38.1447 50.1262 38.5687 50.2222 38.9847 50.4142C39.4087 50.5982 39.7447 50.8462 39.9927 51.1582V47.9662H41.3727V56.8462H39.9927V55.8502C39.7687 56.1702 39.4567 56.4342 39.0567 56.6422C38.6647 56.8502 38.2127 56.9542 37.7007 56.9542C37.1247 56.9542 36.5967 56.8102 36.1167 56.5222C35.6447 56.2262 35.2687 55.8182 34.9887 55.2982C34.7167 54.7702 34.5807 54.1742 34.5807 53.5102ZM39.9927 53.5342C39.9927 53.0782 39.8967 52.6822 39.7047 52.3462C39.5207 52.0102 39.2767 51.7542 38.9727 51.5782C38.6687 51.4022 38.3407 51.3142 37.9887 51.3142C37.6367 51.3142 37.3087 51.4022 37.0047 51.5782C36.7007 51.7462 36.4527 51.9982 36.2607 52.3342C36.0767 52.6622 35.9847 53.0542 35.9847 53.5102C35.9847 53.9662 36.0767 54.3662 36.2607 54.7102C36.4527 55.0542 36.7007 55.3182 37.0047 55.5022C37.3167 55.6782 37.6447 55.7662 37.9887 55.7662C38.3407 55.7662 38.6687 55.6782 38.9727 55.5022C39.2767 55.3262 39.5207 55.0702 39.7047 54.7342C39.8967 54.3902 39.9927 53.9902 39.9927 53.5342Z" fill="#211918"/>
<path d="M45.9415 51.3502H44.7175V56.8462H43.3375V51.3502H42.5575V50.2342H43.3375V49.7662C43.3375 49.0062 43.5375 48.4542 43.9375 48.1102C44.3455 47.7582 44.9815 47.5822 45.8455 47.5822V48.7222C45.4295 48.7222 45.1375 48.8022 44.9695 48.9622C44.8015 49.1142 44.7175 49.3822 44.7175 49.7662V50.2342H45.9415V51.3502Z" fill="#211918"/>
<path d="M10 30H20M10 37H26" stroke="#211918" stroke-width="2" stroke-linecap="round"/>
</svg>
