<svg width="250" height="300" viewBox="0 0 250 300" fill="none" xmlns="http://www.w3.org/2000/svg">
<path d="M0 64C0 47.4315 13.4315 34 30 34H220C236.569 34 250 47.4315 250 64V254C250 270.569 236.569 284 220 284H30C13.4315 284 0 270.569 0 254V64Z" fill="#211918"/>
<path d="M40.4 164.4C40.4 153.333 42.6667 143.533 47.2 135C51.8667 126.467 58.1333 119.867 66 115.2C74 110.4 82.8 108 92.4 108C101.067 108 108.6 109.733 115 113.2C121.533 116.533 126.733 120.733 130.6 125.8V109.8H153.6V220H130.6V203.6C126.733 208.8 121.467 213.133 114.8 216.6C108.133 220.067 100.533 221.8 92 221.8C82.5333 221.8 73.8667 219.4 66 214.6C58.1333 209.667 51.8667 202.867 47.2 194.2C42.6667 185.4 40.4 175.467 40.4 164.4ZM130.6 164.8C130.6 157.2 129 150.6 125.8 145C122.733 139.4 118.667 135.133 113.6 132.2C108.533 129.267 103.067 127.8 97.2 127.8C91.3333 127.8 85.8667 129.267 80.8 132.2C75.7333 135 71.6 139.2 68.4 144.8C65.3333 150.267 63.8 156.8 63.8 164.4C63.8 172 65.3333 178.667 68.4 184.4C71.6 190.133 75.7333 194.533 80.8 197.6C86 200.533 91.4667 202 97.2 202C103.067 202 108.533 200.533 113.6 197.6C118.667 194.667 122.733 190.4 125.8 184.8C129 179.067 130.6 172.4 130.6 164.8Z" fill="#F0F0F0"/>
<path d="M192.747 221.4C188.614 221.4 185.147 220 182.347 217.2C179.547 214.4 178.147 210.933 178.147 206.8C178.147 202.667 179.547 199.2 182.347 196.4C185.147 193.6 188.614 192.2 192.747 192.2C196.747 192.2 200.147 193.6 202.947 196.4C205.747 199.2 207.147 202.667 207.147 206.8C207.147 210.933 205.747 214.4 202.947 217.2C200.147 220 196.747 221.4 192.747 221.4Z" fill="#ED6045"/>
</svg>
